# xmcd
#
# Track frame offsets:
#	150
#	13254
#	26613
#	38925
#	57798
#	70870
#	82108
#	98079
#	112264
#	129974
#	144654
#	160005
#	179066
#	192802
#	204827
#	216889
#	239359
#	255243
#
# Disc length: 3634
#
# Revision: 1
# Processed by: cddbd v1.5.1PL0 Copyright (c) Steve Scherf et al.
# Submitted via: CDex 1.40Beta9
# Normalized: r0:TDELIM( - )
#
DISCID=fc0e3012
DTITLE=Various Artist - Country Women
DYEAR=1900
DGENRE=Country
TTITLE0=Dolly Parton - Here You Come Again
TTITLE1=Loretta Lynn - Coal Miners Daughter
TTITLE2=Patsy Cline - Crazy
TTITLE3=Nanci Griffith - From A Distance
TTITLE4=Jennifer Warnes - Right Time Of The Night
TTITLE5=Crystal Gayle - Don't Make My Brown Eyes Blue
TTITLE6=Billie Jo Spears - Blanket On The Ground
TTITLE7=Emmylou Harris - High Powered Love
TTITLE8=Gretchen Peters - I Was Looking For You
TTITLE9=Olivia Newton-John - Banks Of The Ohio
TTITLE10=Dottie West - Delta Dawn
TTITLE11=Bobby Gentry - Ode To Billie Joe
TTITLE12=Jean Shepard - It Keeps Right On A Hurtin'
TTITLE13=Wanda Jackson - Stand By Your Man
TTITLE14=Brenda Lee - I'm Sorry
TTITLE15=Wynonna - My Angel Is Here
TTITLE16=Emmylou Harris - Crescent City
TTITLE17=The Judds - Love Can Build A Bridge
EXTD=ID3G: 2
EXTT0=
EXTT1=
EXTT2=
EXTT3=
EXTT4=
EXTT5=
EXTT6=
EXTT7=
EXTT8=
EXTT9=
EXTT10=
EXTT11=
EXTT12=
EXTT13=
EXTT14=
EXTT15=
EXTT16=
EXTT17=
PLAYORDER=
